<svg width="18" height="24" viewBox="0 0 18 24" fill="none" xmlns="http://www.w3.org/2000/svg">
<path d="M5.96875 12.7969H8.78125C11.75 12.7969 13.5938 14.2969 13.5938 16.7344C13.5938 18.9375 11.625 20.5 8.875 20.5C6.03125 20.5 4.25 19.0156 4.03125 16.8594H0.671875C0.890625 20.75 4.01562 23.4219 8.875 23.4219C13.5781 23.4219 17.1562 20.7188 17.1562 16.7812C17.1562 13.625 14.9688 11.5469 11.5781 11.3125V11.25C14.375 10.75 16.2188 8.73438 16.2188 5.92188C16.2188 2.45312 13.1094 0.03125 8.84375 0.03125C4.375 0.03125 1.39062 2.57812 1.125 6.53125H4.42188C4.625 4.3125 6.25 2.90625 8.6875 2.90625C11.3594 2.90625 12.7969 4.29688 12.7969 6.39062C12.7969 8.51562 11.125 10.0469 8.6875 10.0469H5.96875V12.7969Z" fill="#505050"/>
</svg>
