<svg width="17" height="24" viewBox="0 0 17 24" fill="none" xmlns="http://www.w3.org/2000/svg">
<path d="M8.23438 23.4219C13.0938 23.4219 16.5 20.2188 16.5 15.5938C16.5 11.2188 13.3906 8.04688 9.0625 8.04688C6.85938 8.04688 5.01562 8.90625 4.03125 10.3281H3.95312L4.57812 3.40625H15.1875V0.453125H1.76562L0.578125 13.2031H3.78125C4.65625 11.7188 6.34375 10.8281 8.29688 10.8281C11.1094 10.8281 13.0781 12.8594 13.0781 15.6875C13.0781 18.5156 11.1094 20.5 8.26562 20.5C5.75 20.5 3.82812 18.9688 3.57812 16.7344H0.234375C0.4375 20.6719 3.73438 23.4219 8.23438 23.4219Z" fill="#505050"/>
</svg>
