<svg width="18" height="24" viewBox="0 0 18 24" fill="none" xmlns="http://www.w3.org/2000/svg">
<path d="M9.39062 23.4375C14.1719 23.4375 17.625 20.1562 17.625 15.6406C17.625 11.3594 14.4375 8.1875 10.1406 8.1875C7.32812 8.1875 4.9375 9.65625 3.95312 11.8438H3.89062C3.90625 6.17188 5.96875 2.95312 9.51562 2.95312C11.5781 2.95312 13.2656 4.15625 13.8125 6H17.3125C16.625 2.40625 13.5312 0.015625 9.54688 0.015625C3.90625 0.015625 0.53125 4.48438 0.53125 12.0312C0.53125 14.6719 1 16.8906 1.92188 18.6875C3.39062 21.7344 6.0625 23.4375 9.39062 23.4375ZM9.35938 20.4844C6.67188 20.4844 4.59375 18.3594 4.59375 15.6875C4.59375 13.0156 6.64062 11.0469 9.39062 11.0469C12.1562 11.0469 14.1406 13.0156 14.1406 15.75C14.1406 18.3906 12.0156 20.4844 9.35938 20.4844Z" fill="#505050"/>
</svg>
