<svg width="18" height="24" viewBox="0 0 18 24" fill="none" xmlns="http://www.w3.org/2000/svg">
<path d="M9 23.4219C14 23.4219 17.5312 20.7344 17.5312 16.9062C17.5312 14.0469 15.5156 11.7344 12.5156 11.1094V11.0312C15.0156 10.3125 16.6094 8.375 16.6094 5.98438C16.6094 2.53125 13.4375 0.03125 9 0.03125C4.57812 0.03125 1.375 2.54688 1.375 5.96875C1.375 8.39062 2.98438 10.3438 5.48438 11.0312V11.1094C2.5 11.7344 0.46875 14.0312 0.46875 16.9062C0.46875 20.7188 3.96875 23.4219 9 23.4219ZM9 20.6094C6.125 20.6094 4.07812 18.9531 4.07812 16.6562C4.07812 14.3438 6.125 12.6719 9 12.6719C11.875 12.6719 13.9062 14.3281 13.9062 16.6562C13.9062 18.9531 11.875 20.6094 9 20.6094ZM9 9.85938C6.54688 9.85938 4.84375 8.39062 4.84375 6.34375C4.84375 4.28125 6.54688 2.8125 9 2.8125C11.4375 2.8125 13.1562 4.28125 13.1562 6.34375C13.1562 8.39062 11.4219 9.85938 9 9.85938Z" fill="#505050"/>
</svg>
