<svg width="18" height="24" viewBox="0 0 18 24" fill="none" xmlns="http://www.w3.org/2000/svg">
<path d="M8.46875 23.4219C14.125 23.4219 17.4688 18.9531 17.4688 11.4062C17.4688 8.76562 17 6.54688 16.0781 4.75C14.625 1.71875 11.9375 0.015625 8.59375 0.015625C3.82812 0.015625 0.359375 3.29688 0.359375 7.8125C0.359375 12.0938 3.5625 15.2656 7.84375 15.2656C10.75 15.2656 13.125 13.7969 14.0312 11.5781H14.0469H14.0625C14.0781 11.5781 14.0938 11.5781 14.0938 11.5781C14.0938 17.2656 12.0312 20.5156 8.51562 20.5156C6.4375 20.5156 4.71875 19.2812 4.1875 17.4375H0.671875C1.34375 21.0156 4.45312 23.4219 8.46875 23.4219ZM8.59375 12.4062C5.85938 12.4062 3.84375 10.4062 3.84375 7.70312C3.84375 5.07812 5.95312 3 8.64062 3C11.3281 3 13.4219 5.09375 13.4219 7.76562C13.4219 10.4219 11.3594 12.4062 8.59375 12.4062Z" fill="#505050"/>
</svg>
