<svg width="35" height="21" viewBox="0 0 35 21" fill="none" xmlns="http://www.w3.org/2000/svg">
<path d="M14.2954 20H17.4199L10.5513 0.976074H7.36084L0.492188 20H3.56396L5.3042 14.8584H12.5552L14.2954 20ZM8.89014 4.14014H8.96924L11.8037 12.4854H6.05566L8.89014 4.14014ZM26.8594 20.3164C31.2363 20.3164 34.2158 18.0093 34.9409 14.0806H32.001C31.4077 16.3745 29.5225 17.7324 26.8726 17.7324C23.3789 17.7324 21.1641 14.9243 21.1641 10.4814C21.1641 6.07812 23.4053 3.24365 26.8594 3.24365C29.4434 3.24365 31.4736 4.83887 32.001 7.27783H34.9277C34.4268 3.30957 31.1704 0.659668 26.8594 0.659668C21.5464 0.659668 18.145 4.45654 18.145 10.4814C18.145 16.5459 21.52 20.3164 26.8594 20.3164Z" fill="#808080"/>
</svg>
