<svg width="17" height="11" viewBox="0 0 17 11" fill="none" xmlns="http://www.w3.org/2000/svg">
<path d="M4.1713 0.510299C2.88515 2.53338 1.599 4.63988 0.486651 6.72553V8.2411H5.07508V10H6.84093V8.2411H8.00194V6.72553H6.84093V0.510299H4.1713ZM2.18993 6.72553V6.70468C3.03809 5.09177 4.03921 3.43716 5.01251 1.92854H5.07508V6.72553H2.18993ZM16.7964 3.54839C16.7199 1.78254 15.3712 0.329543 13.0284 0.329543C10.4561 0.329543 8.9961 2.01197 8.9961 4.56341V5.8287C8.9961 8.41491 10.2822 10.1808 13.0423 10.1808C15.4755 10.1808 16.8103 8.60957 16.8103 6.78115V4.89016H13.0701V6.28755H15.0236V6.89238C15.0236 7.85873 14.2797 8.60957 13.077 8.60957C11.5475 8.60957 10.8871 7.49722 10.8871 5.82175V4.57731C10.8871 2.88099 11.6588 1.90768 13.0214 1.90768C14.1476 1.90768 14.8498 2.56814 14.968 3.54839H16.7964Z" fill="black"/>
</svg>
