<svg width="72" height="72" viewBox="0 0 72 72" fill="none" xmlns="http://www.w3.org/2000/svg">
<rect x="25" y="45" width="28.2178" height="2.5" transform="rotate(-45 25 45)" fill="#808080"/>
<path d="M31.75 28.5C31.75 30.3173 30.3173 31.75 28.5 31.75C26.6827 31.75 25.25 30.3173 25.25 28.5C25.25 26.6827 26.6827 25.25 28.5 25.25C30.3173 25.25 31.75 26.6827 31.75 28.5Z" stroke="#808080" stroke-width="2.5"/>
<path d="M46.75 43.5C46.75 45.3173 45.3173 46.75 43.5 46.75C41.6827 46.75 40.25 45.3173 40.25 43.5C40.25 41.6827 41.6827 40.25 43.5 40.25C45.3173 40.25 46.75 41.6827 46.75 43.5Z" stroke="#808080" stroke-width="2.5"/>
</svg>
